<?xml version="1.0" encoding="UTF-8"?> <svg xmlns="http://www.w3.org/2000/svg" width="64" height="58" viewBox="0 0 64 58" fill="#29C093"><path d="M63.3256 14.5589C61.1399 5.98683 53.886 0 45.6849 0C40.4268 0 35.6622 2.45215 31.9944 6.97835C28.3294 2.45215 23.5673 0 18.3104 0C10.1127 0 2.861 5.98652 0.67504 14.5586C-0.490096 19.1269 -0.720131 26.4216 4.80195 35.2278C9.87239 43.3142 18.6443 50.7972 30.8745 57.4688C31.2232 57.6593 31.6085 57.7544 31.9941 57.7544C32.379 57.7544 32.7646 57.6593 33.1134 57.4692C45.347 50.7972 54.122 43.3142 59.1949 35.2284C64.7192 26.4219 64.4904 19.1275 63.3256 14.5589ZM31.9941 52.7456C2.5973 36.2938 4.04203 20.2752 5.2053 15.7138C6.83642 9.31797 12.3479 4.67551 18.3104 4.67551C22.8849 4.67551 27.034 7.36766 29.9939 12.2561C30.4175 12.9555 31.1756 13.3829 31.9931 13.3829H31.9938C32.811 13.3829 33.5694 12.9558 33.993 12.257C36.956 7.36766 41.1082 4.67551 45.6849 4.67551C51.6508 4.67551 57.1642 9.31797 58.795 15.7141C59.9577 20.2749 61.4005 36.2925 31.9941 52.7456Z"></path><path d="M51.3603 28.7313H42.8431L39.6438 16.8854C39.3683 15.8656 38.4432 15.1571 37.3871 15.1571C37.3871 15.1571 37.3862 15.1571 37.3856 15.1571C36.3286 15.1577 35.4038 15.8674 35.1295 16.8882L30.9892 32.2987L26.8482 16.8882C26.5764 15.8768 25.6647 15.1692 24.6171 15.1574C24.6083 15.1571 24.599 15.1571 24.5903 15.1571C23.5539 15.1571 22.6393 15.8403 22.3473 16.8371L20.1463 24.3438H11.5895C10.2982 24.3438 9.25179 25.3905 9.25179 26.6816C9.25179 27.9726 10.2982 29.0193 11.5895 29.0193H21.8969C22.9345 29.0193 23.8481 28.3354 24.1402 27.3392L24.4921 26.1383L28.7312 41.9144C29.0058 42.9355 29.9316 43.6455 30.9888 43.6455C32.0461 43.6455 32.9722 42.9358 33.2465 41.9144L37.3927 26.4827L38.796 31.6784C39.0712 32.698 39.9967 33.4065 41.0527 33.4065H51.36C52.6514 33.4065 53.6978 32.3601 53.6978 31.0687C53.6981 29.778 52.6517 28.7313 51.3603 28.7313Z"></path></svg> 