<?xml version="1.0" encoding="UTF-8"?> <svg xmlns="http://www.w3.org/2000/svg" width="63" height="64" viewBox="0 0 63 64" fill="#29C093"><path d="M52.196 43.4384L46.5228 43.4381V21.0845H49.0214C50.4929 21.0845 51.6859 19.8916 51.6859 18.4201V2.66448C51.6859 1.19297 50.4929 0 49.0214 0H2.66448C1.19297 0 0 1.19297 0 2.66448V18.4201C0 19.8916 1.19297 21.0845 2.66448 21.0845H5.16304V46.1033V61.3355C5.16304 62.807 6.35602 64 7.82752 64H43.8583C43.8605 64 43.863 63.9996 43.8654 63.9996H52.196H52.1964C52.1964 63.9996 52.1967 63.9996 52.1971 63.9996C57.8642 63.9996 62.4759 59.3883 62.477 53.719C62.4766 48.0504 57.865 43.4388 52.196 43.4384ZM35.521 58.6703C34.1977 58.6703 32.9539 58.1556 32.0188 57.2202C31.0838 56.2851 30.569 55.042 30.5694 53.7183C30.569 52.3957 31.0841 51.1523 32.0192 50.2176C32.951 49.2853 34.1895 48.7713 35.5072 48.7677H41.1942V58.6707H35.521V58.6703ZM5.32895 5.32895H46.3573V15.7556H43.8587H7.82788H5.32931V5.32895H5.32895ZM41.1942 21.0845V43.4381L35.521 43.4377C35.5114 43.4377 35.5022 43.4384 35.4926 43.4384H10.4924V21.0845H41.1942ZM10.4924 48.7674H26.5083C25.6816 50.2673 25.2404 51.9587 25.2408 53.7183C25.24 55.479 25.6816 57.1708 26.5083 58.6707H10.4924V48.7674ZM52.1964 58.6703H46.5228V48.767L52.1957 48.7674C54.9262 48.7677 57.1477 50.9888 57.1477 53.7187C57.1473 56.4492 54.9262 58.6707 52.1964 58.6703Z"></path></svg> 