<?xml version="1.0" encoding="UTF-8"?> <svg xmlns="http://www.w3.org/2000/svg" width="48" height="64" viewBox="0 0 48 64" fill="#29C093"><path d="M45.1341 6.3765H37.9808V5.36188C37.9808 3.8868 36.7825 2.69091 35.3036 2.69091H33.0921V2.67097C33.0921 1.19588 31.8938 0 30.4149 0H17.2563C15.7777 0 14.579 1.19588 14.579 2.67097V2.69127H12.3697C10.8908 2.69127 9.69243 3.88715 9.69243 5.36224V6.37685H2.67727C1.19835 6.37685 0 7.57273 0 9.04782V61.329C0 62.8041 1.19835 64 2.67727 64H45.1345C46.6131 64 47.8118 62.8041 47.8118 61.329V9.04747C47.8114 7.57238 46.6131 6.3765 45.1341 6.3765ZM15.047 8.03321H17.2563C18.7352 8.03321 19.9335 6.83733 19.9335 5.36224V5.34194H27.7372V5.36224C27.7372 6.83733 28.9356 8.03321 30.4145 8.03321H32.6259V13.717H15.047V8.03321ZM42.4569 58.6577H5.35454V11.7184H9.69243V16.3876C9.69243 17.8627 10.8908 19.0586 12.3697 19.0586H35.3036C36.7825 19.0586 37.9808 17.8627 37.9808 16.3876V11.7184H42.4569V58.6577Z"></path><path d="M34.3073 25.959H13.5042C12.0252 25.959 10.8269 27.1549 10.8269 28.6299C10.8269 30.105 12.0252 31.3009 13.5042 31.3009H34.3073C35.7862 31.3009 36.9845 30.105 36.9845 28.6299C36.9845 27.1545 35.7862 25.959 34.3073 25.959Z"></path><path d="M34.3073 35.5357H13.5042C12.0252 35.5357 10.8269 36.7315 10.8269 38.2066C10.8269 39.6817 12.0252 40.8776 13.5042 40.8776H34.3073C35.7862 40.8776 36.9845 39.6817 36.9845 38.2066C36.9845 36.7315 35.7862 35.5357 34.3073 35.5357Z"></path><path d="M34.3073 45.1148H13.5042C12.0252 45.1148 10.8269 46.3107 10.8269 47.7858C10.8269 49.2612 12.0252 50.4568 13.5042 50.4568H34.3073C35.7862 50.4568 36.9845 49.2612 36.9845 47.7858C36.9845 46.3107 35.7862 45.1148 34.3073 45.1148Z"></path></svg> 